<svg xmlns="http://www.w3.org/2000/svg" viewBox="0 0 100 100">
  <rect width="100" height="100" fill="#0A0A0F" rx="18"/>
  <path d="M50 36 Q40 36 35 42 Q30 48 33 54 Q30 60 35 64 Q40 68 45 67 L50 67" fill="none" stroke="#C49A00" stroke-width="1.8" stroke-linecap="round"/>
  <path d="M50 36 Q60 36 65 42 Q70 48 67 54 Q70 60 65 64 Q60 68 55 67 L50 67" fill="none" stroke="#C49A00" stroke-width="1.8" stroke-linecap="round"/>
  <line x1="50" y1="36" x2="50" y2="67" stroke="#C49A00" stroke-width="0.8" stroke-dasharray="2.5,2"/>
  <path d="M52 54 L56 47 L60 56 L64 44 L68 50" fill="none" stroke="#F5C518" stroke-width="1.6" stroke-linecap="round" stroke-linejoin="round"/>
  <circle cx="68" cy="50" r="2.5" fill="#F5C518"/>
</svg>
